<svg width="253" height="167" viewBox="0 0 253 167" fill="none" xmlns="http://www.w3.org/2000/svg">
<path d="M60.8872 89.8683C60.8474 89.8967 60.8001 89.9147 60.7499 89.9156C60.6278 89.9194 60.5378 89.8276 60.5482 89.7092C61.8247 75.1739 57.7974 61.2371 56.6014 58.7959C56.5522 58.6946 56.6024 58.5639 56.7141 58.5042C56.8259 58.4446 56.9565 58.4777 57.0067 58.5791C58.2122 61.0411 62.2735 75.0783 60.9895 89.696C60.9829 89.7651 60.9431 89.8276 60.8872 89.8683Z" fill="#608A6D"/>
<path d="M56.6315 58.1395C54.0511 57.0202 54.928 53.2515 55.1941 52.7988C57.3512 53.8954 57.8199 56.8602 56.6315 58.1395Z" fill="#84BD96"/>
<path d="M59.413 64.8051C57.9993 62.4672 60.7719 59.4806 61.2321 59.2031C62.3248 61.3044 61.055 64.2464 59.413 64.8051Z" fill="#84BD96"/>
<path d="M60.9982 75.0711C60.0389 72.4926 63.2386 69.935 63.731 69.7305C64.4213 72.0192 62.6827 74.7728 60.9982 75.0711Z" fill="#84BD96"/>
<path d="M59.045 70.0579C56.1048 69.9774 55.5167 66.3204 55.6019 65.8242C58.1217 66.0344 59.7116 68.5012 59.045 70.0579Z" fill="#84BD96"/>
<path d="M60.5069 80.9875C57.5382 81.1854 56.5743 77.643 56.6093 77.1468C59.167 77.1156 61.0201 79.3929 60.5069 80.9875Z" fill="#84BD96"/>
<path d="M63.7589 153.958C57.6862 144.647 47.1659 131.406 46.6981 134.328C46.2304 137.249 38.2847 128.485 31.8579 126.382C25.4311 124.279 29.287 128.135 26.3658 128.251C23.4445 128.368 3.46248 121.941 3.69637 126.732C3.93026 131.523 21.3414 131.991 16.1996 135.028C11.0578 138.066 16.7838 140.871 24.8469 141.572C32.91 142.272 34.0785 144.259 31.624 147.298C29.1705 150.335 37.4666 152.322 43.4265 154.309C49.3855 156.295 48.217 156.529 47.8666 160.151C47.5163 163.773 65.3942 167.513 65.3942 164.591C65.3942 161.67 65.5116 156.647 63.7589 153.958Z" fill="#608A6D"/>
<path d="M55.3447 156.393C55.1903 156.393 55.0398 156.313 54.9564 156.169C54.8381 155.965 42.7799 135.681 14.1042 128.568C13.8637 128.509 13.7179 128.266 13.7775 128.026C13.8372 127.785 14.0796 127.639 14.3201 127.699C43.3812 134.906 55.6117 155.513 55.732 155.719C55.856 155.933 55.7831 156.207 55.5691 156.331C55.4981 156.374 55.4214 156.393 55.3447 156.393Z" fill="#84BD96"/>
<path d="M50.499 116.194C48.5484 118.55 48.0607 105.79 44.647 105.627C41.2334 105.464 41.1519 106.196 39.7704 101.319C38.3888 96.4426 37.2506 93.3538 34.0803 94.492C30.91 95.6302 28.8381 84.0067 24.611 84.6572H24.5703C21.1567 86.6893 28.3902 93.029 29.3655 95.1425C30.3409 97.256 27.0901 98.9624 27.7397 102.214C28.3902 105.466 34.3236 106.766 36.03 108.88C37.7364 110.993 35.298 110.099 36.1114 114.001C36.9239 117.902 40.0942 118.228 42.5325 120.178C44.9709 122.129 45.3771 121.641 45.3771 124.486C45.3771 127.33 52.2044 130.907 53.7489 130.176C55.2952 129.443 52.4497 113.837 50.499 116.194Z" fill="#84BD96"/>
<path d="M49.5238 126.584C49.395 126.584 49.2748 126.503 49.2303 126.375C49.1876 126.255 44.8252 114.12 28.9519 92.1536C28.8515 92.0144 28.8827 91.8193 29.0219 91.7189C29.1611 91.6186 29.3562 91.6498 29.4566 91.789C45.3924 113.842 49.7757 126.048 49.8183 126.169C49.8751 126.331 49.7899 126.509 49.628 126.566C49.5929 126.578 49.5579 126.584 49.5238 126.584Z" fill="#608A6D"/>
<path d="M212.669 104.543C212.812 104.525 212.929 104.408 212.94 104.258C212.962 103.979 215.338 76.0514 235.911 48.7061C236.015 48.5687 235.987 48.3737 235.85 48.2695C235.713 48.1663 235.518 48.1938 235.413 48.3311C214.726 75.8279 212.341 103.929 212.319 104.209C212.306 104.381 212.434 104.53 212.606 104.543C212.628 104.547 212.648 104.546 212.669 104.543Z" fill="#608A6D"/>
<path d="M235.903 47.4879C239.953 46.4482 240.194 40.9068 239.998 40.207C236.549 41.3045 234.739 45.417 235.903 47.4879Z" fill="#84BD96"/>
<path d="M226.621 61.0169C229.673 58.1581 227.22 53.1839 226.712 52.6641C224.216 55.2842 224.604 59.7613 226.621 61.0169Z" fill="#84BD96"/>
<path d="M228.008 61.2246C231.236 63.8826 235.854 60.8098 236.303 60.2388C233.384 58.1007 228.994 59.0627 228.008 61.2246Z" fill="#84BD96"/>
<path d="M223.447 70.4121C226.675 73.0701 231.293 69.9973 231.742 69.4263C228.823 67.2882 224.433 68.2503 223.447 70.4121Z" fill="#84BD96"/>
<path d="M219.141 80.9585C222.369 83.6166 226.986 80.5438 227.436 79.9728C224.516 77.8356 220.127 78.7967 219.141 80.9585Z" fill="#84BD96"/>
<path d="M221.68 69.7612C223.844 66.1837 220.136 62.058 219.507 61.6953C217.813 64.894 219.399 69.0984 221.68 69.7612Z" fill="#84BD96"/>
<path d="M217.285 80.894C219.449 77.3165 215.742 73.1908 215.112 72.8281C213.418 76.0259 215.003 80.2302 217.285 80.894Z" fill="#84BD96"/>
<path d="M54.8588 134.698C54.8787 134.555 54.7963 134.412 54.6553 134.362C54.392 134.267 28.0779 124.614 7.12341 97.5604C7.0183 97.4241 6.82229 97.3995 6.68593 97.5046C6.54957 97.6097 6.52495 97.8057 6.63006 97.9421C27.702 125.146 54.1799 134.854 54.445 134.949C54.607 135.007 54.785 134.922 54.8437 134.76C54.8503 134.74 54.856 134.719 54.8588 134.698Z" fill="#608A6D"/>
<path d="M0 91.375C0.150561 94.9913 3.63998 97.8226 5.9448 97.244C6.00824 93.0634 0.727238 91.3703 0 91.375Z" fill="#84BD96"/>
<path d="M16.5488 109.764C14.5963 106.068 9.15052 107.121 8.51514 107.475C10.3853 110.574 14.8056 111.379 16.5488 109.764Z" fill="#84BD96"/>
<path d="M17.1142 108.481C20.5288 106.068 18.7827 100.804 18.3499 100.219C15.5177 102.472 15.2885 106.961 17.1142 108.481Z" fill="#84BD96"/>
<path d="M24.7739 115.303C28.1885 112.89 26.4424 107.626 26.0096 107.041C23.1774 109.294 22.9482 113.782 24.7739 115.303Z" fill="#84BD96"/>
<path d="M33.8126 122.237C37.2273 119.824 35.4811 114.56 35.0484 113.975C32.2171 116.228 31.987 120.716 33.8126 122.237Z" fill="#84BD96"/>
<path d="M23.6814 116.838C20.8009 113.808 15.8437 116.296 15.3276 116.809C17.9667 119.285 22.44 118.865 23.6814 116.838Z" fill="#84BD96"/>
<path d="M33.2625 124.012C30.3819 120.982 25.4248 123.47 24.9087 123.983C27.5478 126.459 32.021 126.038 33.2625 124.012Z" fill="#84BD96"/>
<path d="M194.576 163.591C195.114 159.628 196.775 155.901 199.305 152.804C205.855 144.789 213.275 139.906 212.13 143.552C210.781 147.848 218.869 140.249 221.457 138.279C224.044 136.31 224.118 138.453 226.29 137.953C228.461 137.453 237.954 129.624 238.276 131.249C238.598 132.874 238.965 132.15 244.947 130.615C250.929 129.08 257.187 133.124 249.275 134.746C241.364 136.369 237.109 139.299 239.843 140.012C242.577 140.725 241.146 142.985 230.033 144.505C218.92 146.026 226.452 146.945 226.597 149.628C226.743 152.311 206.964 153.908 209.607 156.005C212.251 158.102 194.142 166.865 194.563 163.685C194.568 163.654 194.572 163.623 194.576 163.591Z" fill="#84BD96"/>
<path d="M199.918 160.273C199.822 160.266 199.726 160.226 199.653 160.151C199.495 159.99 199.498 159.73 199.659 159.572C218.93 140.669 248.821 131.764 249.121 131.677C249.338 131.613 249.565 131.737 249.629 131.954C249.692 132.171 249.568 132.398 249.351 132.462C249.054 132.549 219.355 141.399 200.233 160.156C200.145 160.242 200.031 160.281 199.918 160.273Z" fill="#608A6D"/>
<path d="M241.12 96.4545C245.343 96.2197 240.957 103.851 237.788 106.046C234.617 108.241 236.406 107.915 238.357 108.159C240.307 108.404 238.113 111.736 233.154 114.093C228.196 116.45 228.521 117.263 230.879 117.831C233.237 118.4 228.603 121.814 224.133 123.765C219.663 125.715 220.313 125.96 221.695 127.666C223.076 129.372 205.439 139.777 204.625 138.395C203.813 137.013 211.128 121.326 212.185 123.196C213.241 125.065 215.598 123.765 217.387 117.425C219.175 111.085 222.996 110.177 222.996 112.304C222.996 113.524 226.572 106.777 228.117 104.989C229.661 103.201 228.686 107.509 230.23 106.534C231.775 105.558 238.194 96.6174 241.12 96.4545Z" fill="#608A6D"/>
<path d="M207.795 135.212C207.714 135.212 207.634 135.181 207.573 135.119C207.452 134.997 207.454 134.799 207.576 134.679C219.781 122.635 238.744 100.778 238.933 100.558C239.046 100.429 239.243 100.415 239.373 100.527C239.503 100.64 239.517 100.837 239.404 100.967C239.214 101.186 220.235 123.061 208.013 135.122C207.953 135.183 207.874 135.212 207.795 135.212Z" fill="#84BD96"/>
<path d="M208.858 44.7188H180.319V84.7017H208.858V44.7188Z" fill="#DB9764"/>
<path d="M205.962 42.6504H183.213V44.7185H205.962V42.6504Z" fill="#EAB17B"/>
<path d="M199.896 84.7012H189.28V118.203H199.896V84.7012Z" fill="#EAB17B"/>
<path d="M184.535 49.9575H178.308C178.125 49.9575 177.975 49.8079 177.975 49.6242V47.8099C177.975 47.6252 178.125 47.4766 178.308 47.4766H184.535C184.719 47.4766 184.869 47.6262 184.869 47.8099V49.6242C184.869 49.8079 184.719 49.9575 184.535 49.9575Z" fill="#EAB17B"/>
<path d="M184.535 57.3569H178.308C178.125 57.3569 177.975 57.2073 177.975 57.0236V55.2083C177.975 55.0237 178.125 54.875 178.308 54.875H184.535C184.719 54.875 184.869 55.0246 184.869 55.2083V57.0226C184.869 57.2073 184.719 57.3569 184.535 57.3569Z" fill="#EAB17B"/>
<path d="M184.535 64.7563H178.308C178.125 64.7563 177.975 64.6067 177.975 64.423V62.6087C177.975 62.4241 178.125 62.2754 178.308 62.2754H184.535C184.719 62.2754 184.869 62.425 184.869 62.6087V64.423C184.869 64.6067 184.719 64.7563 184.535 64.7563Z" fill="#EAB17B"/>
<path d="M184.535 72.1548H178.308C178.125 72.1548 177.975 72.0052 177.975 71.8215V70.0071C177.975 69.8225 178.125 69.6738 178.308 69.6738H184.535C184.719 69.6738 184.869 69.8234 184.869 70.0071V71.8215C184.869 72.0061 184.719 72.1548 184.535 72.1548Z" fill="#EAB17B"/>
<path d="M184.535 79.5532H178.308C178.125 79.5532 177.975 79.4036 177.975 79.2199V77.4056C177.975 77.2209 178.125 77.0723 178.308 77.0723H184.535C184.719 77.0723 184.869 77.2219 184.869 77.4056V79.2199C184.869 79.4045 184.719 79.5532 184.535 79.5532Z" fill="#EAB17B"/>
<path d="M213.074 49.9575H206.847C206.664 49.9575 206.514 49.8079 206.514 49.6242V47.8099C206.514 47.6252 206.664 47.4766 206.847 47.4766H213.074C213.258 47.4766 213.408 47.6262 213.408 47.8099V49.6242C213.409 49.8079 213.259 49.9575 213.074 49.9575Z" fill="#EAB17B"/>
<path d="M213.074 57.3569H206.847C206.664 57.3569 206.514 57.2073 206.514 57.0236V55.2083C206.514 55.0237 206.664 54.875 206.847 54.875H213.074C213.258 54.875 213.408 55.0246 213.408 55.2083V57.0226C213.409 57.2073 213.259 57.3569 213.074 57.3569Z" fill="#EAB17B"/>
<path d="M213.074 64.7563H206.847C206.664 64.7563 206.514 64.6067 206.514 64.423V62.6087C206.514 62.4241 206.664 62.2754 206.847 62.2754H213.074C213.258 62.2754 213.408 62.425 213.408 62.6087V64.423C213.409 64.6067 213.259 64.7563 213.074 64.7563Z" fill="#EAB17B"/>
<path d="M213.074 72.1548H206.847C206.664 72.1548 206.514 72.0052 206.514 71.8215V70.0071C206.514 69.8225 206.664 69.6738 206.847 69.6738H213.074C213.258 69.6738 213.408 69.8234 213.408 70.0071V71.8215C213.409 72.0061 213.259 72.1548 213.074 72.1548Z" fill="#EAB17B"/>
<path d="M213.074 79.5532H206.847C206.664 79.5532 206.514 79.4036 206.514 79.2199V77.4056C206.514 77.2209 206.664 77.0723 206.847 77.0723H213.074C213.258 77.0723 213.408 77.2219 213.408 77.4056V79.2199C213.409 79.4045 213.259 79.5532 213.074 79.5532Z" fill="#EAB17B"/>
<path d="M202.88 49.9575H199.449C199.264 49.9575 199.116 49.8079 199.116 49.6242V47.8099C199.116 47.6252 199.265 47.4766 199.449 47.4766H202.88C203.063 47.4766 203.213 47.6262 203.213 47.8099V49.6242C203.213 49.8079 203.064 49.9575 202.88 49.9575Z" fill="#EAB17B"/>
<path d="M202.88 57.3569H199.449C199.264 57.3569 199.116 57.2073 199.116 57.0236V55.2083C199.116 55.0237 199.265 54.875 199.449 54.875H202.88C203.063 54.875 203.213 55.0246 203.213 55.2083V57.0226C203.213 57.2073 203.064 57.3569 202.88 57.3569Z" fill="#EAB17B"/>
<path d="M202.88 64.7563H199.449C199.264 64.7563 199.116 64.6067 199.116 64.423V62.6087C199.116 62.4241 199.265 62.2754 199.449 62.2754H202.88C203.063 62.2754 203.213 62.425 203.213 62.6087V64.423C203.213 64.6067 203.064 64.7563 202.88 64.7563Z" fill="#EAB17B"/>
<path d="M202.88 72.1548H199.449C199.264 72.1548 199.116 72.0052 199.116 71.8215V70.0071C199.116 69.8225 199.265 69.6738 199.449 69.6738H202.88C203.063 69.6738 203.213 69.8234 203.213 70.0071V71.8215C203.213 72.0061 203.064 72.1548 202.88 72.1548Z" fill="#EAB17B"/>
<path d="M202.88 79.5532H199.449C199.264 79.5532 199.116 79.4036 199.116 79.2199V77.4056C199.116 77.2209 199.265 77.0723 199.449 77.0723H202.88C203.063 77.0723 203.213 77.2219 203.213 77.4056V79.2199C203.213 79.4045 203.064 79.5532 202.88 79.5532Z" fill="#EAB17B"/>
<path d="M191.958 49.9575H188.527C188.343 49.9575 188.194 49.8079 188.194 49.6242V47.8099C188.194 47.6252 188.343 47.4766 188.527 47.4766H191.958C192.143 47.4766 192.291 47.6262 192.291 47.8099V49.6242C192.291 49.8079 192.142 49.9575 191.958 49.9575Z" fill="#EAB17B"/>
<path d="M191.958 57.3569H188.527C188.343 57.3569 188.194 57.2073 188.194 57.0236V55.2083C188.194 55.0237 188.343 54.875 188.527 54.875H191.958C192.143 54.875 192.291 55.0246 192.291 55.2083V57.0226C192.291 57.2073 192.142 57.3569 191.958 57.3569Z" fill="#EAB17B"/>
<path d="M191.958 64.7563H188.527C188.343 64.7563 188.194 64.6067 188.194 64.423V62.6087C188.194 62.4241 188.343 62.2754 188.527 62.2754H191.958C192.143 62.2754 192.291 62.425 192.291 62.6087V64.423C192.291 64.6067 192.142 64.7563 191.958 64.7563Z" fill="#EAB17B"/>
<path d="M191.958 72.1548H188.527C188.343 72.1548 188.194 72.0052 188.194 71.8215V70.0071C188.194 69.8225 188.343 69.6738 188.527 69.6738H191.958C192.143 69.6738 192.291 69.8234 192.291 70.0071V71.8215C192.291 72.0061 192.142 72.1548 191.958 72.1548Z" fill="#EAB17B"/>
<path d="M191.958 79.5532H188.527C188.343 79.5532 188.194 79.4036 188.194 79.2199V77.4056C188.194 77.2209 188.343 77.0723 188.527 77.0723H191.958C192.143 77.0723 192.291 77.2219 192.291 77.4056V79.2199C192.291 79.4045 192.142 79.5532 191.958 79.5532Z" fill="#EAB17B"/>
<path d="M195.057 49.9575H196.698C196.865 49.9575 197 49.8221 197 49.6564V47.7777C197 47.611 196.864 47.4766 196.698 47.4766H195.057C194.891 47.4766 194.756 47.612 194.756 47.7777V49.6564C194.755 49.8221 194.891 49.9575 195.057 49.9575Z" fill="#EAB17B"/>
<path d="M195.057 57.3559H196.698C196.865 57.3559 197 57.2205 197 57.0548V55.1761C197 55.0095 196.864 54.875 196.698 54.875H195.057C194.891 54.875 194.756 55.0104 194.756 55.1761V57.0548C194.755 57.2205 194.891 57.3559 195.057 57.3559Z" fill="#EAB17B"/>
<path d="M195.057 64.7573H196.698C196.865 64.7573 197 64.6219 197 64.4562V62.5765C197 62.4099 196.864 62.2754 196.698 62.2754H195.057C194.891 62.2754 194.756 62.4108 194.756 62.5765V64.4552C194.755 64.6219 194.891 64.7573 195.057 64.7573Z" fill="#EAB17B"/>
<path d="M195.057 72.1548H196.698C196.865 72.1548 197 72.0194 197 71.8537V69.975C197 69.8083 196.864 69.6738 196.698 69.6738H195.057C194.891 69.6738 194.756 69.8092 194.756 69.975V71.8537C194.755 72.0203 194.891 72.1548 195.057 72.1548Z" fill="#EAB17B"/>
<path d="M195.057 79.5532H196.698C196.865 79.5532 197 79.4178 197 79.2521V77.3734C197 77.2067 196.864 77.0723 196.698 77.0723H195.057C194.891 77.0723 194.756 77.2077 194.756 77.3734V79.2521C194.755 79.4187 194.891 79.5532 195.057 79.5532Z" fill="#EAB17B"/>
<path d="M102.258 4.36547C97.9638 2.75475 95.8171 6.5131 96.1741 11.1644C96.532 15.8166 95.2793 21.3637 88.6593 19.753C88.6593 19.753 87.6859 19.5721 87.0675 19.3913C86.0306 19.0892 84.9521 18.9358 83.8622 18.9358C76.7318 18.9358 69.8572 25.4383 67.1433 34.7485C65.7219 39.6271 65.6443 44.6467 66.9264 48.8823C68.0012 52.4333 70.002 55.2381 72.6032 56.9596C72.7566 58.9936 73.035 66.8019 69.5134 77.3677C65.3981 89.7137 54.8408 88.6408 52.3362 88.4609C50.0787 88.2999 40.1455 161.01 39.6209 164.855C39.6095 164.941 39.6758 165.014 39.762 165.016L41.421 165.043C41.421 165.043 82.6738 67.4667 88.8051 54.5478C91.8059 51.7534 94.2481 47.7612 95.6211 43.0474C96.551 39.8572 96.889 33.8878 96.889 33.8878C96.889 33.8878 97.068 17.7843 101.72 14.026C106.372 10.2677 106.552 5.97619 102.258 4.36547ZM91.2321 41.769C88.7994 50.118 82.4172 55.6007 76.978 54.0156C71.5389 52.4304 69.1015 44.3768 71.5342 36.0287C73.9668 27.6797 80.3491 22.197 85.7882 23.7822C91.2283 25.3673 93.6657 33.42 91.2321 41.769Z" fill="#E09C67"/>
<path d="M100.428 4.36547C96.134 2.75475 93.9873 6.5131 94.3443 11.1644C94.7022 15.8166 93.4495 21.3637 86.8295 19.753C86.8295 19.753 85.8561 19.5721 85.2377 19.3913C84.2009 19.0892 83.1223 18.9358 82.0324 18.9358C74.9021 18.9358 68.0274 25.4383 65.3135 34.7485C63.8922 39.6271 63.8145 44.6467 65.0966 48.8823C66.1714 52.4333 68.1723 55.2381 70.7735 56.9596C70.9269 58.9936 71.2053 66.8019 67.6836 77.3677C63.5683 89.7137 53.011 88.6408 50.5064 88.4609C48.0009 88.282 39.2333 163.791 39.5912 165.043C39.9406 166.266 80.844 67.4667 86.9753 54.5478C89.9762 51.7534 92.4183 47.7611 93.7913 43.0474C94.7212 39.8572 95.0592 33.8878 95.0592 33.8878C95.0592 33.8878 95.2382 17.7843 99.8905 14.026C104.544 10.2705 104.723 5.97619 100.428 4.36547ZM89.4023 41.769C86.9697 50.118 80.5874 55.6007 75.1482 54.0156C69.7091 52.4304 67.2717 44.3768 69.7044 36.0287C72.137 27.6797 78.5193 22.197 83.9584 23.7822C89.3976 25.3673 91.835 33.42 89.4023 41.769Z" fill="#FCE5D6"/>
<path d="M21.2622 14.028C25.9145 17.7854 26.0934 33.8898 26.0934 33.8898C26.0934 33.8898 26.4315 39.8592 27.3614 43.0494C28.7353 47.7632 31.1775 51.7554 34.1773 54.5498C39.9138 66.6354 79.7026 165.03 79.7026 165.03L81.5615 165.046C81.5615 165.046 73.1518 88.2849 70.6462 88.463C68.1416 88.6419 57.5844 89.7157 53.469 77.3697C49.9465 66.8039 50.2249 58.9956 50.3792 56.9616C52.9804 55.2401 54.9822 52.4343 56.056 48.8843C57.3382 44.6487 57.2605 39.6291 55.8392 34.7505C53.1262 25.4404 46.2506 18.9378 39.1203 18.9378C38.0304 18.9378 36.9518 19.0912 35.9149 19.3933C35.2966 19.5732 34.3232 19.755 34.3232 19.755C27.7023 21.3657 26.4504 15.8187 26.8084 11.1664C27.1663 6.51416 25.0187 2.75677 20.7244 4.36749C16.431 5.97631 16.61 10.2706 21.2622 14.028ZM37.1942 23.7823C42.6334 22.1971 49.0156 27.6798 51.4483 36.0289C53.8809 44.3779 51.4445 52.4306 46.0044 54.0157C40.5653 55.6009 34.183 50.1182 31.7504 41.7691C29.3187 33.4201 31.7551 25.3674 37.1942 23.7823Z" fill="#E09C67"/>
<path d="M19.4326 14.028C24.0849 17.7854 24.2638 33.8898 24.2638 33.8898C24.2638 33.8898 24.6019 39.8592 25.5318 43.0494C26.9058 47.7632 29.3479 51.7554 32.3477 54.5498C38.4791 67.4677 79.3825 166.267 79.7319 165.046C80.0898 163.793 71.3222 88.2849 68.8167 88.4629C66.312 88.6419 55.7548 89.7157 51.6394 77.3697C48.1169 66.8039 48.3953 58.9956 48.5496 56.9616C51.1508 55.2401 53.1526 52.4343 54.2264 48.8843C55.5086 44.6487 55.4309 39.6291 54.0096 34.7505C51.2966 25.4404 44.421 18.9378 37.2907 18.9378C36.2008 18.9378 35.1222 19.0912 34.0853 19.3933C33.467 19.5732 32.4936 19.755 32.4936 19.755C25.8727 21.3657 24.6208 15.8186 24.9788 11.1664C25.3367 6.51416 23.1891 2.75677 18.8948 4.36749C14.6014 5.97631 14.7804 10.2706 19.4326 14.028ZM35.3656 23.7823C40.8047 22.1971 47.187 27.6798 49.6196 36.0289C52.0523 44.3779 49.6159 52.4306 44.1758 54.0157C38.7376 55.6009 32.3553 50.1182 29.9217 41.7691C27.4891 33.4201 29.9264 25.3674 35.3656 23.7823Z" fill="#FCE5D6"/>
<path d="M63.7928 95.9449C64.12 93.929 62.751 92.0296 60.7352 91.7025C58.7193 91.3753 56.8199 92.7443 56.4928 94.7601C56.1656 96.776 57.5346 98.6754 59.5504 99.0025C61.5663 99.3297 63.4657 97.9607 63.7928 95.9449Z" fill="#D2EAF9"/>
<path d="M179.554 125.189L185.272 129.022L186.736 128.729C186.736 128.729 186.434 128.968 186.121 129.591L187.63 130.602C188.04 130.28 188.603 129.886 189.226 129.59C189.226 129.59 188.889 129.942 188.486 131.176L193.748 134.705C194.312 134.131 195.378 133.11 197.169 131.617C197.169 131.617 195.842 133.287 194.543 135.238L202.278 140.424C203.652 139.829 204.91 138.007 204.91 138.007C204.519 139.563 204.147 140.728 203.877 141.495L207.042 143.617C207.042 143.617 211.365 137.295 211.165 130.673L189.082 115.436C189.082 115.436 183.277 119.164 179.554 125.189Z" fill="#80889D"/>
<path d="M180.693 125.949L186.41 129.782L187.874 129.489C187.874 129.489 187.572 129.728 187.26 130.351L188.768 131.362C189.178 131.04 189.742 130.645 190.365 130.35C190.365 130.35 190.028 130.702 189.624 131.936L194.886 135.464C195.451 134.89 196.517 133.87 198.308 132.376C198.308 132.376 196.981 134.047 195.682 135.997L203.417 141.184C204.791 140.589 206.049 138.767 206.049 138.767C205.658 140.323 205.285 141.488 205.016 142.255L208.181 144.377C208.181 144.377 212.504 138.055 212.304 131.433L190.221 116.195C190.221 116.196 184.415 119.923 180.693 125.949Z" fill="#C2C2C2"/>
<path d="M186.333 116.902L211.718 133.856C215.744 128.67 219.063 116.681 212.283 109.604L233.716 75.4274L231.881 74.2012L208.52 107.09C199.385 103.539 189.581 111.197 186.333 116.902Z" fill="#D3D3D3"/>
<path d="M187.472 117.664L212.856 134.617C216.883 129.432 220.202 117.443 213.422 110.366L234.854 76.1892L233.019 74.9629L209.659 107.851C200.523 104.301 190.72 111.958 187.472 117.664Z" fill="#80889D"/>
<path d="M149.016 134.391C151.741 154.833 161.938 162.687 165.673 164.917C166.477 165.397 167.394 165.648 168.331 165.648H200.012C200.948 165.648 201.865 165.397 202.669 164.917C206.405 162.687 216.601 154.833 219.326 134.391H149.016Z" fill="#F7C8B7"/>
<path d="M72.563 164.219V1.66843C72.563 0.884381 73.1993 0.248047 73.9834 0.248047H169.796C170.58 0.248047 171.216 0.884381 171.216 1.66843V164.219C171.216 165.003 170.58 165.639 169.796 165.639H73.9834C73.1984 165.639 72.563 165.003 72.563 164.219Z" fill="#8BAAA5"/>
<path d="M74.5894 157.921V2.59557C74.5894 2.3863 74.7589 2.2168 74.9681 2.2168H168.811C169.021 2.2168 169.19 2.3863 169.19 2.59557V157.921C169.19 158.13 169.021 158.299 168.811 158.299H74.9681C74.7589 158.299 74.5894 158.13 74.5894 157.921Z" fill="#737373"/>
<path d="M168.092 3.53125H75.6855V156.985H168.092V3.53125Z" fill="#FAE0DC"/>
<path d="M160.356 149.467L160.356 11.0488L83.4235 11.0488L83.4235 149.467H160.356Z" fill="white"/>
<path d="M173.595 28.6284H70.2202L83.4459 10.6387H160.37L173.595 28.6284Z" fill="#688888"/>
<path d="M149.884 28.6284H93.9307L101.089 10.6387H142.726L149.884 28.6284Z" fill="#8BAAA5"/>
<path d="M129.775 28.6284H114.04L116.053 10.6387H127.762L129.775 28.6284Z" fill="#688888"/>
<path d="M149.883 28.6309C158.262 37.3056 170.493 36.122 173.594 28.6309H149.883Z" fill="#21393C"/>
<path d="M129.762 28.6309C136.872 37.3056 147.25 36.122 149.882 28.6309H129.762Z" fill="#688888"/>
<path d="M93.9312 28.6309C85.5528 37.3056 73.3214 36.122 70.2202 28.6309H93.9312Z" fill="#21393C"/>
<path d="M114.053 28.6309C106.944 37.3056 96.5656 36.122 93.9341 28.6309H114.053Z" fill="#688888"/>
<path d="M129.762 28.6309C126.028 36.2583 117.197 35.2726 114.053 28.6309H129.762Z" fill="#21393C"/>
<path d="M103.491 118.001C111.493 118.001 117.981 111.513 117.981 103.51C117.981 95.5072 111.493 89.0195 103.491 89.0195C95.4876 89.0195 89 95.5072 89 103.51C89 111.513 95.4876 118.001 103.491 118.001Z" fill="#FAE5FF"/>
<g clip-path="url(#clip0_647_154449)">
<path d="M108.798 103.09L106.306 104.314L105.215 102.401C103.923 102.78 101.119 102.423 101.119 102.423L100.005 104.315L97.5791 103.159C97.5791 103.159 98.8484 99.6651 99.5155 98.3302C100.184 96.9953 101.964 96.3945 101.964 96.3945C103.144 96.9847 104.391 96.3945 104.391 96.3945C106.751 97.327 106.839 98.2606 106.839 98.2606L108.798 103.09Z" stroke="#A77246" stroke-width="0.3" stroke-miterlimit="10" stroke-linecap="round" stroke-linejoin="round"/>
<path d="M105.215 102.4L105.2 103.127C103.138 103.543 101.119 103.135 101.119 103.135V102.423C101.119 102.423 103.923 102.779 105.215 102.4Z" stroke="#A77246" stroke-width="0.3" stroke-miterlimit="10" stroke-linecap="round" stroke-linejoin="round"/>
<path d="M105.583 110.8C105.329 110.893 105.059 110.934 104.787 110.933L101.502 110.926C100.538 110.903 99.7774 110.101 99.8034 109.138C99.9427 104.111 101.119 103.136 101.119 103.136C101.119 103.136 103.138 103.543 105.2 103.129C106.059 104.406 106.413 107.368 106.461 109.278C106.481 110.096 106.271 110.548 105.583 110.8Z" stroke="#A77246" stroke-width="0.3" stroke-miterlimit="10" stroke-linecap="round" stroke-linejoin="round"/>
<path d="M99.5156 98.3281C99.5156 98.3281 100.428 98.9513 100.496 100.064C100.563 101.177 100.637 101.635 101.119 102.424" stroke="#A77246" stroke-width="0.3" stroke-miterlimit="10" stroke-linecap="round" stroke-linejoin="round"/>
<path d="M106.839 98.2617C106.839 98.2617 105.838 98.8401 105.852 100.353C105.852 100.353 105.704 101.97 105.215 102.401" stroke="#A77246" stroke-width="0.3" stroke-miterlimit="10" stroke-linecap="round" stroke-linejoin="round"/>
<path d="M101.964 96.3926C101.964 96.3926 101.785 96.9119 102.775 98.3495C103.052 98.7508 103.276 99.1863 103.44 99.6466C103.786 100.611 104.346 102.188 104.437 102.537" stroke="#A77246" stroke-width="0.3" stroke-miterlimit="10" stroke-linecap="round" stroke-linejoin="round"/>
<path d="M104.39 96.3926C104.39 96.3926 104.338 97.1786 103.923 97.6685C103.507 98.1583 103.166 99.0093 103.166 99.0093" stroke="#A77246" stroke-width="0.3" stroke-miterlimit="10" stroke-linecap="round" stroke-linejoin="round"/>
<path d="M104.562 103.23V108.519H103.945L103.798 103.298L104.562 103.23Z" stroke="#A77246" stroke-width="0.3" stroke-miterlimit="10" stroke-linecap="round" stroke-linejoin="round"/>
<path d="M105.437 104.938C105.437 104.938 105.904 106.695 106.027 109.388" stroke="#A77246" stroke-width="0.3" stroke-miterlimit="10" stroke-linecap="round" stroke-linejoin="round"/>
<path d="M101.119 100.377C101.119 100.377 101.138 101.802 101.952 101.98" stroke="#A77246" stroke-width="0.3" stroke-miterlimit="10" stroke-linecap="round" stroke-linejoin="round"/>
</g>
<path d="M138.51 118.001C146.513 118.001 153.001 111.513 153.001 103.51C153.001 95.5072 146.513 89.0195 138.51 89.0195C130.507 89.0195 124.02 95.5072 124.02 103.51C124.02 111.513 130.507 118.001 138.51 118.001Z" fill="#E9E9E9"/>
<path d="M138.415 111.033C138.209 110.966 138.054 110.831 137.904 110.679C136.67 109.436 135.434 108.194 134.194 106.958C133.961 106.726 133.878 106.469 133.946 106.148C134.006 105.862 134.045 105.571 134.102 105.284C134.123 105.179 134.1 105.109 134.022 105.032C133.277 104.291 132.537 103.545 131.795 102.802C131.603 102.61 131.525 102.382 131.587 102.118C131.716 101.571 132.37 101.386 132.777 101.783C133.175 102.172 133.564 102.57 133.957 102.964C134.415 103.423 134.869 103.885 135.33 104.34C135.542 104.549 135.629 104.787 135.569 105.083C135.509 105.384 135.464 105.688 135.404 105.989C135.381 106.108 135.399 106.196 135.528 106.26C135.756 106.031 135.989 105.797 136.221 105.564C136.401 105.383 136.616 105.306 136.862 105.383C136.964 105.415 137.066 105.474 137.143 105.548C137.471 105.864 137.79 106.19 138.111 106.514C138.23 106.634 138.237 106.761 138.137 106.855C138.045 106.941 137.918 106.931 137.806 106.82C137.5 106.516 137.197 106.208 136.891 105.903C136.736 105.748 136.649 105.748 136.493 105.903C136.271 106.123 136.05 106.343 135.841 106.551C136.839 107.551 137.83 108.545 138.825 109.543C139.045 109.323 139.284 109.087 139.518 108.847C139.622 108.739 139.614 108.637 139.5 108.52C139.203 108.22 138.904 107.922 138.606 107.622C138.575 107.592 138.542 107.563 138.517 107.528C138.446 107.43 138.445 107.328 138.533 107.241C138.619 107.154 138.723 107.151 138.818 107.228C138.891 107.289 138.956 107.361 139.024 107.429C139.285 107.69 139.548 107.95 139.807 108.214C140.096 108.509 140.095 108.879 139.806 109.171C139.576 109.403 139.342 109.63 139.127 109.843C139.175 109.996 139.236 110.124 139.251 110.258C139.287 110.593 139.104 110.87 138.791 110.991C138.761 111.003 138.733 111.019 138.704 111.033C138.607 111.033 138.511 111.033 138.415 111.033ZM134.339 106.408C134.376 106.466 134.417 106.564 134.487 106.634C135.755 107.911 137.026 109.184 138.297 110.459C138.328 110.489 138.358 110.521 138.393 110.546C138.508 110.628 138.65 110.616 138.747 110.519C138.84 110.425 138.854 110.272 138.773 110.162C138.74 110.116 138.697 110.077 138.657 110.036C137.461 108.836 136.265 107.635 135.067 106.437C134.962 106.333 134.921 106.23 134.952 106.079C135.024 105.721 135.074 105.359 135.145 105.002C135.174 104.851 135.127 104.747 135.023 104.643C134.19 103.812 133.361 102.979 132.531 102.146C132.497 102.112 132.463 102.077 132.423 102.051C132.309 101.974 132.163 101.995 132.071 102.096C131.984 102.192 131.974 102.335 132.052 102.441C132.083 102.483 132.122 102.52 132.16 102.557C132.915 103.315 133.669 104.075 134.428 104.829C134.549 104.948 134.581 105.066 134.549 105.228C134.474 105.603 134.414 105.983 134.339 106.408Z" fill="#9A9A9A"/>
<path d="M138.519 99.1C138.487 100.164 138.206 101.142 137.624 102.03C137.39 102.388 137.166 102.75 137.055 103.17C136.918 103.687 137.061 104.107 137.474 104.439C137.82 104.715 138.219 104.891 138.632 105.034C139.244 105.246 139.82 105.516 140.3 105.965C140.694 106.332 140.994 106.77 141.264 107.232C141.424 107.505 141.571 107.788 141.748 108.05C142.264 108.813 142.985 109.295 143.872 109.517C144.034 109.557 144.231 109.535 144.392 109.482C144.715 109.373 144.801 109.093 144.599 108.821C144.445 108.615 144.274 108.411 144.073 108.253C143.286 107.631 142.863 106.795 142.611 105.85C142.513 105.479 142.428 105.105 142.339 104.731C142.297 104.557 142.353 104.44 142.486 104.408C142.616 104.376 142.719 104.461 142.758 104.635C142.902 105.281 143.043 105.928 143.303 106.541C143.515 107.04 143.822 107.465 144.235 107.82C144.48 108.032 144.707 108.272 144.913 108.522C145.115 108.767 145.236 109.055 145.085 109.376C144.918 109.73 144.631 109.927 144.243 109.967C143.812 110.01 143.42 109.874 143.041 109.689C142.586 109.466 142.164 109.187 141.817 108.818C141.596 108.583 141.416 108.306 141.236 108.036C141.07 107.784 140.928 107.516 140.775 107.255C140.26 106.378 139.528 105.776 138.556 105.465C138.104 105.32 137.672 105.123 137.286 104.837C136.919 104.565 136.653 104.224 136.587 103.756C136.534 103.388 136.607 103.033 136.763 102.705C136.916 102.385 137.091 102.075 137.28 101.777C137.813 100.938 138.072 100.024 138.058 99.0322C138.046 98.2199 137.858 97.4442 137.54 96.699C137.525 96.6635 137.508 96.6292 137.494 96.5934C137.438 96.452 137.482 96.3306 137.604 96.282C137.718 96.2366 137.841 96.2859 137.889 96.4265C138.051 96.9024 138.23 97.3752 138.348 97.8623C138.446 98.2646 138.466 98.6866 138.519 99.1Z" fill="#9A9A9A"/>
<path d="M140.892 97.058C140.882 96.8808 140.868 96.7035 140.862 96.5259C140.856 96.3706 140.939 96.2715 141.069 96.2677C141.197 96.2638 141.279 96.3579 141.292 96.5139C141.377 97.5424 141.454 98.572 141.551 99.5994C141.62 100.328 141.826 101.027 142.046 101.725C142.239 102.336 142.376 102.966 142.533 103.589C142.569 103.73 142.501 103.838 142.379 103.869C142.261 103.899 142.159 103.827 142.118 103.685C142.109 103.652 142.103 103.619 142.095 103.587C141.924 102.948 141.751 102.309 141.583 101.67C141.447 101.147 141.272 100.627 141.194 100.095C141.068 99.2314 141.006 98.3586 140.918 97.4892C140.904 97.3459 140.899 97.2018 140.889 97.058C140.89 97.0584 140.891 97.0584 140.892 97.058Z" fill="#9A9A9A"/>
<path d="M137.516 103.162C137.634 103.164 137.729 103.268 137.725 103.388C137.721 103.512 137.624 103.601 137.5 103.596C137.386 103.59 137.296 103.495 137.296 103.38C137.296 103.261 137.398 103.16 137.516 103.162Z" fill="#9A9A9A"/>
<path d="M138.502 104.364C138.504 104.487 138.411 104.585 138.29 104.586C138.171 104.588 138.072 104.489 138.073 104.368C138.074 104.254 138.166 104.158 138.279 104.153C138.398 104.147 138.499 104.244 138.502 104.364Z" fill="#9A9A9A"/>
<path d="M137.95 103.994C137.949 104.115 137.85 104.211 137.73 104.209C137.608 104.206 137.518 104.11 137.522 103.985C137.526 103.869 137.619 103.777 137.733 103.775C137.849 103.773 137.952 103.876 137.95 103.994Z" fill="#9A9A9A"/>
<path d="M138.919 104.875C138.8 104.873 138.703 104.77 138.707 104.651C138.71 104.532 138.815 104.436 138.933 104.442C139.049 104.447 139.135 104.54 139.135 104.658C139.135 104.782 139.039 104.877 138.919 104.875Z" fill="#9A9A9A"/>
<path d="M139.762 104.856C139.764 104.975 139.665 105.075 139.546 105.075C139.424 105.075 139.333 104.981 139.334 104.856C139.335 104.739 139.424 104.647 139.539 104.643C139.655 104.638 139.76 104.738 139.762 104.856Z" fill="#9A9A9A"/>
<path d="M138.51 73.6218C146.513 73.6218 153.001 67.1341 153.001 59.1312C153.001 51.1283 146.513 44.6406 138.51 44.6406C130.507 44.6406 124.02 51.1283 124.02 59.1312C124.02 67.1341 130.507 73.6218 138.51 73.6218Z" fill="#FAE5FF"/>
<g clip-path="url(#clip1_647_154449)">
<path d="M145.316 61.1895C145.316 61.8392 143.571 62.3653 141.417 62.3653C139.264 62.3653 137.518 61.8392 137.518 61.1895C137.518 60.5398 139.264 60.0137 141.417 60.0137C143.571 60.0137 145.316 60.5398 145.316 61.1895Z" stroke="#A77246" stroke-width="0.3" stroke-miterlimit="10" stroke-linecap="round" stroke-linejoin="round"/>
<path d="M145.316 61.1895V65.037C145.316 65.3213 145.151 65.5829 144.887 65.7116C141.872 67.1899 139.035 66.199 137.965 65.7116C137.691 65.5866 137.517 65.3199 137.517 65.0275V61.1895C137.517 61.8391 139.263 62.3653 141.416 62.3653C143.571 62.366 145.316 61.8391 145.316 61.1895Z" stroke="#A77246" stroke-width="0.3" stroke-miterlimit="10" stroke-linecap="round" stroke-linejoin="round"/>
<path d="M137.518 62.7324C137.518 62.7324 141.216 64.5711 145.317 62.7324" stroke="#A77246" stroke-width="0.3" stroke-miterlimit="10" stroke-linecap="round" stroke-linejoin="round"/>
<path d="M138.874 63.7285V65.3348C138.874 65.3348 141.2 66.2906 144.006 65.3348V63.7285C144.006 63.7285 141.648 64.4081 138.874 63.7285Z" stroke="#A77246" stroke-width="0.3" stroke-miterlimit="10" stroke-linecap="round" stroke-linejoin="round"/>
<path d="M141.417 60.4826C141.417 60.4826 144.398 60.4497 144.846 61.2748" stroke="#A77246" stroke-width="0.3" stroke-miterlimit="10" stroke-linecap="round" stroke-linejoin="round"/>
<path d="M144.905 63.3789L144.905 65.1229" stroke="#A77246" stroke-width="0.3" stroke-miterlimit="10" stroke-linecap="round" stroke-linejoin="round"/>
</g>
<g clip-path="url(#clip2_647_154449)">
<path d="M143.048 51.9785C143.048 51.9785 138.717 56.9633 137.2 58.7115C136.924 59.0296 136.714 59.7252 136.693 59.9401C136.613 60.7651 136.287 62.2886 135.645 63.1106L132.154 59.8117C132.154 59.8117 133.523 58.8224 135.222 58.6511C135.712 58.6015 136.175 58.4011 136.548 58.0762L143.048 51.9785Z" stroke="#A77246" stroke-width="0.3" stroke-miterlimit="10" stroke-linecap="round" stroke-linejoin="round"/>
<path d="M135.48 62.9922L134.57 63.9563" stroke="#A77246" stroke-width="0.3" stroke-miterlimit="10" stroke-linecap="round" stroke-linejoin="round"/>
<path d="M135.232 62.7578L134.321 63.7229" stroke="#A77246" stroke-width="0.3" stroke-miterlimit="10" stroke-linecap="round" stroke-linejoin="round"/>
<path d="M134.984 62.5234L134.073 63.4875" stroke="#A77246" stroke-width="0.3" stroke-miterlimit="10" stroke-linecap="round" stroke-linejoin="round"/>
<path d="M134.734 62.2871L133.824 63.2522" stroke="#A77246" stroke-width="0.3" stroke-miterlimit="10" stroke-linecap="round" stroke-linejoin="round"/>
<path d="M134.485 62.0527L133.576 63.0178" stroke="#A77246" stroke-width="0.3" stroke-miterlimit="10" stroke-linecap="round" stroke-linejoin="round"/>
<path d="M134.237 61.8184L133.327 62.7834" stroke="#A77246" stroke-width="0.3" stroke-miterlimit="10" stroke-linecap="round" stroke-linejoin="round"/>
<path d="M133.988 61.584L133.078 62.549" stroke="#A77246" stroke-width="0.3" stroke-miterlimit="10" stroke-linecap="round" stroke-linejoin="round"/>
<path d="M133.739 61.3496L132.83 62.3137" stroke="#A77246" stroke-width="0.3" stroke-miterlimit="10" stroke-linecap="round" stroke-linejoin="round"/>
<path d="M133.491 61.1133L132.58 62.0783" stroke="#A77246" stroke-width="0.3" stroke-miterlimit="10" stroke-linecap="round" stroke-linejoin="round"/>
<path d="M133.242 60.8789L132.332 61.844" stroke="#A77246" stroke-width="0.3" stroke-miterlimit="10" stroke-linecap="round" stroke-linejoin="round"/>
<path d="M132.993 60.6445L132.083 61.6096" stroke="#A77246" stroke-width="0.3" stroke-miterlimit="10" stroke-linecap="round" stroke-linejoin="round"/>
<path d="M132.745 60.4102L131.835 61.3752" stroke="#A77246" stroke-width="0.3" stroke-miterlimit="10" stroke-linecap="round" stroke-linejoin="round"/>
<path d="M132.497 60.1758L131.586 61.1399" stroke="#A77246" stroke-width="0.3" stroke-miterlimit="10" stroke-linecap="round" stroke-linejoin="round"/>
<path d="M132.247 59.9395L131.337 60.9045" stroke="#A77246" stroke-width="0.3" stroke-miterlimit="10" stroke-linecap="round" stroke-linejoin="round"/>
<path d="M135.42 59.1406C135.42 59.1406 134.05 59.2467 132.988 59.9471" stroke="#A77246" stroke-width="0.3" stroke-miterlimit="10" stroke-linecap="round" stroke-linejoin="round"/>
</g>
<path d="M103.491 73.6218C111.493 73.6218 117.981 67.1341 117.981 59.1312C117.981 51.1283 111.493 44.6406 103.491 44.6406C95.4876 44.6406 89 51.1283 89 59.1312C89 67.1341 95.4876 73.6218 103.491 73.6218Z" fill="#FAE5FF"/>
<g clip-path="url(#clip3_647_154449)">
<path d="M100.945 57.1811L99.0283 53.7999L99.1073 53.7832L102.362 57.9637" stroke="#A77246" stroke-width="0.3" stroke-miterlimit="10" stroke-linecap="round" stroke-linejoin="round"/>
<path d="M102.028 59.0918L103.224 61.2031L103.731 61.0921C103.659 60.9578 103.613 60.1197 103.607 60.0165" stroke="#A77246" stroke-width="0.3" stroke-miterlimit="10" stroke-linecap="round" stroke-linejoin="round"/>
<path d="M102.919 58.5059L104.825 59.7858L104.62 60.2364C104.294 60.1032 103.899 60.0433 103.607 60.0155C103.363 59.9933 103.192 59.9933 103.192 59.9933L102.096 59.0276" stroke="#A77246" stroke-width="0.3" stroke-miterlimit="10" stroke-linecap="round" stroke-linejoin="round"/>
<path d="M102.258 58.0625L100.945 57.1811L97.66 54.9766L97.5908 55.0587L101.653 58.6387" stroke="#A77246" stroke-width="0.3" stroke-miterlimit="10" stroke-linecap="round" stroke-linejoin="round"/>
<path d="M107.537 61.9554C107.881 62.2718 108.372 62.2918 108.637 61.9987C108.9 61.7057 108.835 61.2117 108.492 60.8953C108.148 60.579 107.657 60.559 107.392 60.852C107.129 61.1451 107.194 61.6391 107.537 61.9554Z" stroke="#A77246" stroke-width="0.3" stroke-miterlimit="10" stroke-linecap="round" stroke-linejoin="round"/>
<path d="M103.973 64.8625C104.187 65.2798 104.642 65.4697 104.99 65.2865C105.337 65.1033 105.446 64.6182 105.231 64.2009C105.017 63.7835 104.561 63.5937 104.213 63.7768C103.866 63.96 103.759 64.4462 103.973 64.8625Z" stroke="#A77246" stroke-width="0.3" stroke-miterlimit="10" stroke-linecap="round" stroke-linejoin="round"/>
<path d="M103.225 61.202C103.225 61.202 103.632 62.6173 103.467 63.29C103.303 63.9638 103.174 64.8152 103.789 65.4624C104.403 66.1096 104.999 65.9319 104.999 65.9319C104.999 65.9319 105.801 65.6444 105.828 65.438C105.847 65.2837 105.855 64.8352 105.857 64.6143C105.858 64.5333 105.892 64.4567 105.953 64.4034C106.009 64.3534 106.022 64.2713 105.987 64.2058L105.844 63.9427C105.804 63.8694 105.715 63.8384 105.639 63.8739C105.639 63.8739 104.659 62.9803 104.231 62.1633C103.847 61.4284 103.73 61.0898 103.73 61.0898L103.225 61.202Z" stroke="#A77246" stroke-width="0.3" stroke-miterlimit="10" stroke-linecap="round" stroke-linejoin="round"/>
<path d="M104.619 60.2367C104.619 60.2367 106.008 61.0959 106.277 61.3423C106.546 61.5887 107.134 62.217 107.187 62.297C107.207 62.3269 107.21 62.3647 107.208 62.3991C107.201 62.479 107.24 62.5556 107.302 62.6045L107.542 62.7865C107.6 62.8298 107.68 62.8176 107.721 62.7587L107.789 62.6644C107.789 62.6644 108.496 62.7798 108.776 62.6877C108.857 62.6611 108.943 62.6533 109.027 62.6711C109.411 62.7532 110.366 62.9253 110.54 62.6455C110.759 62.2936 110.467 62.2914 110.311 62.4457C110.155 62.5989 109.32 62.3935 109.28 61.9773C109.28 61.9773 109.527 61.2824 108.983 60.7928C108.44 60.3022 108.131 60.1568 107.735 60.1601C107.338 60.1634 106.463 60.3077 105.932 60.1512C105.4 59.9947 104.824 59.7871 104.824 59.7871L104.619 60.2367Z" stroke="#A77246" stroke-width="0.3" stroke-miterlimit="10" stroke-linecap="round" stroke-linejoin="round"/>
<path d="M102.618 59.0266C102.625 59.1254 102.71 59.1998 102.808 59.192C102.905 59.1842 102.979 59.0987 102.971 58.9999C102.963 58.9011 102.879 58.8268 102.781 58.8345C102.684 58.8412 102.61 58.9278 102.618 59.0266Z" stroke="#A77246" stroke-width="0.3" stroke-miterlimit="10" stroke-linecap="round" stroke-linejoin="round"/>
<path d="M108.456 54.1044L107.693 53.334" stroke="#A77246" stroke-width="0.3" stroke-miterlimit="10" stroke-linecap="round" stroke-linejoin="round"/>
<path d="M108.17 54.3913L107.378 53.5898" stroke="#A77246" stroke-width="0.3" stroke-miterlimit="10" stroke-linecap="round" stroke-linejoin="round"/>
<path d="M107.886 54.679L107.097 53.8809" stroke="#A77246" stroke-width="0.3" stroke-miterlimit="10" stroke-linecap="round" stroke-linejoin="round"/>
<path d="M107.602 54.9678L106.815 54.1719" stroke="#A77246" stroke-width="0.3" stroke-miterlimit="10" stroke-linecap="round" stroke-linejoin="round"/>
<path d="M107.317 55.2546L106.533 54.4609" stroke="#A77246" stroke-width="0.3" stroke-miterlimit="10" stroke-linecap="round" stroke-linejoin="round"/>
<path d="M107.033 55.5415L106.251 54.75" stroke="#A77246" stroke-width="0.3" stroke-miterlimit="10" stroke-linecap="round" stroke-linejoin="round"/>
<path d="M106.749 55.8303L105.968 55.041" stroke="#A77246" stroke-width="0.3" stroke-miterlimit="10" stroke-linecap="round" stroke-linejoin="round"/>
<path d="M106.464 56.1171L105.685 55.3301" stroke="#A77246" stroke-width="0.3" stroke-miterlimit="10" stroke-linecap="round" stroke-linejoin="round"/>
<path d="M106.179 56.4062L105.401 55.6191" stroke="#A77246" stroke-width="0.3" stroke-miterlimit="10" stroke-linecap="round" stroke-linejoin="round"/>
<path d="M105.896 56.6941L105.119 55.9082" stroke="#A77246" stroke-width="0.3" stroke-miterlimit="10" stroke-linecap="round" stroke-linejoin="round"/>
<path d="M105.611 56.9812L104.834 56.1953" stroke="#A77246" stroke-width="0.3" stroke-miterlimit="10" stroke-linecap="round" stroke-linejoin="round"/>
<path d="M105.327 57.2675L104.549 56.4805" stroke="#A77246" stroke-width="0.3" stroke-miterlimit="10" stroke-linecap="round" stroke-linejoin="round"/>
<path d="M105.042 57.5568L104.263 56.7676" stroke="#A77246" stroke-width="0.3" stroke-miterlimit="10" stroke-linecap="round" stroke-linejoin="round"/>
<path d="M104.758 57.8445L103.974 57.0508" stroke="#A77246" stroke-width="0.3" stroke-miterlimit="10" stroke-linecap="round" stroke-linejoin="round"/>
<path d="M104.473 58.1317L103.711 57.3613" stroke="#A77246" stroke-width="0.3" stroke-miterlimit="10" stroke-linecap="round" stroke-linejoin="round"/>
<path d="M104.189 58.4189L103.54 57.7617" stroke="#A77246" stroke-width="0.3" stroke-miterlimit="10" stroke-linecap="round" stroke-linejoin="round"/>
<path d="M103.917 58.697C103.917 58.697 102.992 58.0009 103.976 57.0485C104.96 56.0961 107.578 53.3831 107.578 53.3831C107.578 53.3831 107.949 53.09 108.691 53.7283C108.691 53.7283 107.871 52.404 107.107 53.1211C106.343 53.8371 96.3638 64.2617 96.3638 64.2617L96.4318 64.3383L102.107 58.8535C102.598 58.3872 103.332 58.314 103.894 58.6814C103.9 58.687 103.909 58.6914 103.917 58.697Z" stroke="#A77246" stroke-width="0.3" stroke-miterlimit="10" stroke-linecap="round" stroke-linejoin="round"/>
</g>
<path d="M131.483 142H112.517C110.574 142 109 140.317 109 138.241V130.759C109 128.683 110.574 127 112.517 127H131.483C133.426 127 135 128.683 135 130.759V138.241C135 140.317 133.426 142 131.483 142Z" fill="#7A628E"/>
<path d="M81.6856 86.4902H55.2494C54.7996 86.4902 54.4341 86.8548 54.4341 87.3055V103.507H82.5009V87.3055C82.5009 86.8557 82.1354 86.4902 81.6856 86.4902Z" fill="#73A9C0"/>
<path d="M73.1631 92.457H63.7705V103.397H73.1631V92.457Z" fill="#5D8EA3"/>
<path d="M71.0637 96.7954C71.7656 96.7954 72.3345 96.2265 72.3345 95.5247C72.3345 94.8229 71.7656 94.2539 71.0637 94.2539C70.3619 94.2539 69.793 94.8229 69.793 95.5247C69.793 96.2265 70.3619 96.7954 71.0637 96.7954Z" fill="#E0E0E0"/>
<path d="M82.5561 103.508H54.4343C49.5718 103.508 47.0303 108.48 47.0303 114.116V154.181C47.0303 155.998 47.3598 157.813 48.106 159.469C49.5718 162.722 52.3899 165.416 58.1907 165.498H78.7987C84.5995 165.415 87.4176 162.722 88.8834 159.469C89.6296 157.812 89.9591 155.998 89.9591 154.181V114.116C89.9591 108.48 87.4185 103.508 82.5561 103.508Z" fill="#BEDAE7"/>
<path d="M58.19 163.803C53.8901 163.741 51.1686 162.143 49.6497 158.772C49.0352 157.408 48.7236 155.863 48.7236 154.179V114.115C48.7236 109.678 50.4887 105.201 54.4326 105.201H82.5544C86.4984 105.201 88.2634 109.678 88.2634 114.115V154.179C88.2634 155.863 87.9519 157.408 87.3373 158.772C85.8204 162.139 83.1017 163.738 78.7847 163.803H58.19Z" fill="#73A9C0"/>
<path d="M88.2644 126.823V154.179C88.2644 155.863 87.9528 157.408 87.3383 158.772C85.8213 162.139 83.1027 163.739 78.7857 163.803H58.19C53.8901 163.741 51.1686 162.143 49.6497 158.772C49.0352 157.408 48.7236 155.863 48.7236 154.179V126.823C57.5272 121.629 65.2617 127.817 72.9971 131.353C80.7325 134.89 88.2644 126.823 88.2644 126.823Z" fill="#BEDAE7"/>
<path d="M74.2967 155.134C70.7495 155.134 66.0253 154.139 63.5207 149.43C57.9026 138.868 66.6134 106.533 66.9874 105.162L68.7231 105.302C68.6331 105.632 59.7122 138.661 65.0168 148.634C68.6937 155.546 78.0134 153.076 78.4083 152.968L78.8599 154.601C78.8145 154.613 76.8638 155.134 74.2967 155.134Z" fill="#BEDAE7"/>
<path d="M84.643 79.1044C86.7698 76.9492 86.2812 74.0468 86.1372 73.7599C87.1145 75.2257 86.8559 78.1281 84.7576 79.6791C86.8843 78.558 87.7745 74.65 86.2234 73.2419C84.6714 71.8339 83.6942 71.9778 83.0341 72.2647C82.3732 72.5516 81.2236 72.6094 79.9879 72.6956C78.7522 72.7817 75.5336 73.0118 76.4246 77.897C73.723 77.1215 74.3556 80.3107 73.0621 89.2194C71.7686 98.1281 77.8611 88.0414 77.8611 88.0414L78.0912 81.2311L79.8733 80.9149L84.643 79.1044Z" fill="#2B1710"/>
<path d="M66.8674 155.887C66.8674 155.887 67.7291 161.318 66.839 162.467C65.948 163.616 66.0635 165.628 66.0635 165.628H77.3859C76.7827 164.248 71.2943 162.265 70.6334 161.461C69.9724 160.656 70.5188 156.059 70.5188 156.059L66.8674 155.887Z" fill="#FCAF95"/>
<path d="M66.9241 162.333C67.5415 162.721 68.8161 163.323 70.1569 162.768C70.2696 162.693 70.2298 162.068 70.7147 161.547C71.6578 162.399 76.8005 164.295 77.3839 165.628H66.0624C66.0624 165.628 65.9478 163.617 66.838 162.467C66.8692 162.428 66.8976 162.382 66.9241 162.333Z" fill="#4F7E7B"/>
<path d="M77.3849 165.629H66.0625C66.0625 165.629 66.0379 165.199 66.0994 164.623H76.3414C76.8631 164.975 77.2485 165.317 77.3849 165.629Z" fill="#9AE1E6"/>
<path d="M79.0388 155.887C79.0388 155.887 79.9005 161.318 79.0104 162.467C78.1194 163.616 78.2349 165.628 78.2349 165.628H89.5573C88.9541 164.248 83.4647 162.265 82.8047 161.461C82.1438 160.656 82.6902 156.059 82.6902 156.059L79.0388 155.887Z" fill="#FCAF95"/>
<path d="M87.3727 117.638C87.545 120.827 87.2865 129.794 87.2003 132.38C87.1141 134.966 84.2696 157.122 84.2696 157.122C80.7347 157.811 78.4072 156.519 78.4072 156.519C78.4072 156.519 77.8901 134.019 78.321 131.346C74.6138 146.174 72.0277 156.605 72.0277 156.605C67.2865 157.122 66.4238 155.657 66.4238 155.657C66.4238 155.657 67.1994 138.76 68.4929 134.45C69.7864 130.139 69.9587 128.329 69.7864 124.967C69.614 121.606 70.131 109.019 73.1489 105.657C76.1658 102.294 84.7866 107.984 84.7866 107.984L87.3727 117.638Z" fill="#CBB39C"/>
<path d="M86.5976 128.069C90.1325 117.38 86.1374 106.604 86.1374 106.604C86.1374 106.604 74.0111 106.604 73.7526 106.604C70.0454 113.069 72.2867 129.277 72.2867 129.277C79.9587 127.293 86.5976 128.069 86.5976 128.069Z" fill="#84668C"/>
<path d="M85.9642 105.455L86.1366 106.605C81.7116 108.07 72.9753 108.099 72.4866 106.116C71.998 104.133 85.9642 105.455 85.9642 105.455Z" fill="#433959"/>
<path d="M84.1122 87.5527C86.2096 87.8974 87.3734 88.5006 88.4945 89.5782C89.6157 90.6558 92.072 95.2247 92.072 95.2247L91.483 95.4832L88.4084 98.0693L87.7474 98.2416C87.3734 98.931 86.5978 99.5777 86.3393 100.655C86.0808 101.733 86.0373 103.414 86.0373 103.414C86.0373 103.414 82.5459 105.827 82.3736 105.699C82.2013 105.57 75.0027 103.414 74.356 103.285C73.7092 103.156 73.1922 102.638 73.1922 102.638C73.1922 100.914 72.8333 97.3506 72.8333 97.3506L68.7095 96.0429L68.3506 95.0514C68.753 93.9303 70.305 90.6549 71.555 89.7932C72.8049 88.9315 76.1959 87.8539 76.1959 87.8539L80.3055 87.94L84.1122 87.5527Z" fill="#F7968B"/>
<path d="M87.8894 97.438C87.8894 97.7827 87.7454 98.2429 87.7454 98.2429L88.6071 99.9673C87.2568 101.031 85.1878 101.662 85.0723 101.662C81.0488 101.145 71.8826 102.065 71.8826 102.065C71.6524 100.857 72.8304 97.3519 72.8304 97.3519C72.5142 96.7771 68.4338 95.0527 68.3477 95.0527C67.5428 96.7771 65.79 104.507 66.1925 105.11C66.5949 105.713 66.3071 105.799 67.3136 106.058C68.3193 106.316 76.9978 107.092 82.9464 105.569C88.4348 106.603 94.2972 106.144 94.4411 105.569C94.5851 104.994 91.7973 95.3681 91.4811 95.4826C89.5853 96.1739 87.8894 97.438 87.8894 97.438Z" fill="#FCAF95"/>
<path d="M81.9573 84.2336C81.9138 84.5499 81.9573 86.0583 82.2594 86.6331C82.5615 87.2079 83.2793 87.4806 84.1126 87.5526C84.1126 87.5526 83.8824 90.6556 81.1667 91.5761C80.8078 91.5476 77.057 89.9237 76.1953 87.8546C78.7672 87.5242 78.9537 85.5129 78.4083 81.5472C77.5466 81.7773 76.8279 81.0728 76.7133 80.0387C76.5987 79.0047 77.7767 78.5871 78.0636 79.3636C78.0636 79.3636 78.4376 79.981 78.4944 80.1107C78.4944 80.1107 78.5229 79.1051 78.9689 78.4867C80.679 78.4583 83.3796 77.0928 83.6381 74.1621C84.7299 75.2255 85.1182 76.4612 85.0604 77.8551C85.0027 79.249 84.9023 80.6429 84.7735 81.2461C84.6447 81.8492 84.2849 84.4921 81.9573 84.2336Z" fill="#FCAF95"/>
<path d="M83.0993 80.861C83.461 80.861 84.0225 80.7805 84.0595 80.6649C84.0651 80.647 84.0708 80.6024 83.9979 80.5721C83.694 80.4472 83.0103 79.7114 83.4923 77.8365C83.4979 77.8128 83.4837 77.7891 83.461 77.7825C83.4373 77.7768 83.4137 77.791 83.407 77.8138C82.8379 80.0258 83.8388 80.5911 83.9544 80.6479C83.8085 80.7189 83.1353 80.8127 82.8853 80.7558C82.8616 80.7502 82.8379 80.7653 82.8323 80.789C82.8266 80.8127 82.8417 80.8363 82.8654 80.842C82.9203 80.8553 83.0027 80.861 83.0993 80.861Z" fill="#2B1710"/>
<path d="M82.6641 83.0746C82.8052 83.0746 82.9672 83.0538 83.148 82.997C83.1717 82.9894 83.184 82.9648 83.1774 82.942C83.1698 82.9184 83.1452 82.9061 83.1224 82.9127C82.4653 83.1182 82.0742 82.8227 82.0704 82.8199C82.0515 82.8047 82.024 82.8085 82.0089 82.8275C81.9937 82.8464 81.9975 82.8739 82.0164 82.889C82.0278 82.8985 82.2579 83.0746 82.6641 83.0746Z" fill="#E98971"/>
<path d="M81.5686 84.2341C81.5903 84.2341 81.6093 84.218 81.6121 84.1953C81.615 84.1716 81.5979 84.1489 81.5742 84.1461C79.6132 83.8942 78.617 81.2419 78.6075 81.2144C78.599 81.1917 78.5734 81.1803 78.5507 81.1879C78.528 81.1964 78.5157 81.222 78.5242 81.2447C78.5346 81.2722 79.5478 83.9737 81.5629 84.2332C81.5648 84.2341 81.5667 84.2341 81.5686 84.2341Z" fill="#E98971"/>
<path d="M77.977 81.1166C77.9997 81.1166 78.0196 81.0986 78.0205 81.0759C78.0224 81.0513 78.0044 81.0305 77.9798 81.0286C77.7071 81.0087 77.6001 80.8307 77.5916 80.6697C77.5811 80.4652 77.7175 80.2322 77.9987 80.182C78.0129 80.1792 78.0243 80.1707 78.0309 80.1574C78.0366 80.1441 78.0366 80.1299 78.03 80.1176C78.0167 80.094 77.708 79.5362 77.3823 79.4965C77.281 79.4841 77.1901 79.5211 77.1105 79.6063C77.0944 79.6243 77.0954 79.6517 77.1134 79.6688C77.1314 79.6849 77.1588 79.6839 77.1759 79.6659C77.2355 79.6016 77.299 79.575 77.3719 79.5836C77.601 79.612 77.8406 79.9737 77.923 80.1091C77.6323 80.1896 77.4921 80.4472 77.5044 80.6744C77.5177 80.9235 77.7024 81.0968 77.9741 81.1166C77.9741 81.1166 77.9751 81.1166 77.977 81.1166Z" fill="#E98971"/>
<path d="M87.8473 97.3388C87.872 97.3388 87.8918 97.319 87.8918 97.2953C87.8918 97.2811 87.8852 96.926 87.2839 95.6817C86.6741 94.4195 86.6059 93.6127 86.9004 91.1374C86.9032 91.1128 86.8862 91.091 86.8616 91.0882C86.8379 91.0854 86.8152 91.1024 86.8123 91.127C86.516 93.6231 86.586 94.4394 87.2044 95.7205C87.7915 96.9364 87.8038 97.2934 87.8038 97.2962C87.8038 97.319 87.8227 97.3388 87.8473 97.3388Z" fill="#D1D1D1"/>
<path d="M91.251 102.572C91.0521 102.387 90.8192 102.115 90.6127 101.875C90.3864 101.612 90.1734 101.364 90.0654 101.299C89.8609 101.177 89.5834 101.148 89.5806 101.147C89.556 101.144 89.5389 101.123 89.5408 101.099C89.5437 101.074 89.5645 101.057 89.5891 101.059C89.6014 101.06 89.8893 101.09 90.1099 101.223C90.2302 101.295 90.4376 101.537 90.6781 101.817C90.8826 102.056 91.1146 102.326 91.3097 102.508C91.5824 102.762 91.7765 102.765 91.8684 102.745C91.9526 102.726 91.999 102.678 92.0133 102.644C92.0189 102.502 91.162 101.274 90.8807 100.871C90.7633 100.703 90.7245 100.646 90.7122 100.626C90.6222 100.549 89.4651 100.037 88.931 99.9548C88.9073 99.951 88.8903 99.9283 88.8941 99.9046C88.8979 99.881 88.9206 99.8639 88.9443 99.8677C89.4774 99.9501 90.7453 100.496 90.787 100.581C90.7946 100.595 90.8675 100.699 90.9527 100.82C91.9545 102.256 92.1307 102.586 92.0966 102.672C92.0653 102.749 91.9877 102.809 91.8873 102.832C91.8627 102.837 91.8324 102.841 91.7974 102.841C91.6752 102.84 91.4858 102.791 91.251 102.572Z" fill="#E98971"/>
<path d="M91.2723 103.329C91.3566 103.329 91.4333 103.302 91.4911 103.281C91.5024 103.277 91.5138 103.273 91.5252 103.27C91.5678 103.256 91.5971 103.223 91.6075 103.176C91.6359 103.055 91.5365 102.861 91.456 102.78C91.439 102.763 91.4106 102.763 91.3935 102.78C91.3765 102.797 91.3765 102.826 91.3935 102.843C91.4646 102.914 91.5403 103.08 91.5214 103.156C91.5166 103.177 91.5062 103.183 91.4967 103.187C91.4854 103.19 91.474 103.194 91.4617 103.199C91.3348 103.243 91.1776 103.299 91.0129 103.099C90.9873 103.068 90.9551 103.028 90.9191 102.982C90.6616 102.654 90.1815 102.045 89.7629 101.992C89.7383 101.99 89.7165 102.007 89.7137 102.03C89.7108 102.055 89.7279 102.077 89.7516 102.08C90.1341 102.128 90.6171 102.742 90.8491 103.036C90.886 103.083 90.9182 103.124 90.9437 103.155C91.0564 103.29 91.1701 103.329 91.2723 103.329Z" fill="#E98971"/>
<path d="M90.8914 103.587C90.9577 103.587 91.0155 103.578 91.0638 103.558C91.1339 103.53 91.1831 103.48 91.2068 103.415C91.2153 103.392 91.203 103.367 91.1803 103.359C91.1575 103.351 91.132 103.363 91.1244 103.386C91.1092 103.428 91.0789 103.458 91.0316 103.477C90.8735 103.54 90.5742 103.472 90.2087 103.289C90.0676 103.218 89.9332 103.135 89.8034 103.054C89.4303 102.822 89.0781 102.604 88.6255 102.726C88.0232 102.888 87.1672 102.802 86.6672 102.641C86.1388 102.469 83.9524 102.067 83.8596 102.05C83.8359 102.045 83.8122 102.061 83.8084 102.085C83.8037 102.108 83.8198 102.132 83.8435 102.136C83.8662 102.14 86.1171 102.554 86.6398 102.724C87.1511 102.89 88.0289 102.977 88.6472 102.811C89.0629 102.699 89.3839 102.899 89.7561 103.13C89.8877 103.212 90.0231 103.296 90.168 103.369C90.4587 103.513 90.7068 103.587 90.8914 103.587Z" fill="#E98971"/>
<path d="M82.5738 105.298C82.5908 105.298 82.6079 105.288 82.6145 105.271C82.624 105.248 82.6126 105.223 82.5908 105.213C81.4261 104.733 73.2399 102.359 72.2097 102.136C72.186 102.131 72.1623 102.146 72.1576 102.17C72.1529 102.193 72.168 102.217 72.1917 102.222C73.221 102.444 81.3958 104.814 82.5577 105.295C82.5624 105.297 82.5681 105.298 82.5738 105.298Z" fill="#E98971"/>
<path d="M73.9538 94.6365C73.9765 94.6365 73.9964 94.6185 73.9974 94.5948C73.9993 94.5702 74.111 92.1357 71.3895 90.5316C71.3687 90.5193 71.3412 90.5259 71.3289 90.5467C71.3166 90.5676 71.3232 90.595 71.3441 90.6073C74.0172 92.183 73.9102 94.5655 73.9084 94.5901C73.9074 94.6147 73.9254 94.6355 73.95 94.6365C73.9519 94.6365 73.9529 94.6365 73.9538 94.6365Z" fill="#D1D1D1"/>
<path d="M78.3217 131.044C78.3406 131.044 78.3586 131.032 78.3643 131.013L79.0111 128.857C79.0177 128.834 79.0044 128.809 78.9817 128.802C78.958 128.796 78.9334 128.809 78.9268 128.832L78.28 130.987C78.2734 131.011 78.2867 131.035 78.3094 131.042C78.3132 131.044 78.317 131.044 78.3217 131.044Z" fill="#BDBDBD"/>
<path d="M67.5449 154.537C67.5468 154.537 67.5477 154.537 67.5496 154.537C67.5742 154.535 67.5913 154.514 67.5894 154.489C67.2447 151.065 68.0846 145.374 68.8498 141.204C69.737 136.37 70.7256 132.479 70.9472 132.056C71.4188 131.157 71.4699 127.462 71.4699 125.916C71.4699 125.891 71.45 125.871 71.4254 125.871C71.4008 125.871 71.3809 125.891 71.3809 125.916C71.3809 127.455 71.3307 131.133 70.8686 132.016C70.6129 132.504 69.5931 136.663 68.7626 141.188C67.9966 145.364 67.1557 151.063 67.5013 154.498C67.5032 154.52 67.5222 154.537 67.5449 154.537Z" fill="#D1D1D1"/>
<path d="M81.1657 79.5499C81.4037 79.5499 81.5966 79.2506 81.5966 78.8814C81.5966 78.5122 81.4037 78.2129 81.1657 78.2129C80.9278 78.2129 80.7349 78.5122 80.7349 78.8814C80.7349 79.2506 80.9278 79.5499 81.1657 79.5499Z" fill="#2B1710"/>
<path d="M83.5801 78.983C83.5801 79.3523 83.7373 79.6515 83.9323 79.6515C84.1274 79.6515 84.2846 79.3523 84.2846 78.983C84.2846 78.6137 84.1274 78.3145 83.9323 78.3145C83.7373 78.3145 83.5801 78.6137 83.5801 78.983Z" fill="#2B1710"/>
<path d="M85.0019 77.9537C84.5853 77.5513 83.5503 77.6233 83.5503 77.6233C84.4129 76.8761 85.0313 77.4216 85.0019 77.9537Z" fill="#2B1710"/>
<path d="M83.6277 81.7446C83.5254 81.3185 82.7499 81.1793 81.1543 81.3356C81.3323 82.7626 83.3531 83.1243 83.6277 81.7446Z" fill="#E98971"/>
<path d="M82.8818 81.9139C83.1886 81.9139 83.52 81.8656 83.8675 81.7454C83.8902 81.7378 83.9025 81.7122 83.895 81.6895C83.8874 81.6668 83.8618 81.6545 83.8391 81.662C82.1886 82.2359 80.9216 81.1223 80.9084 81.1109C80.8904 81.0948 80.862 81.0958 80.8459 81.1147C80.8298 81.1327 80.8307 81.1611 80.8487 81.1772C80.8591 81.1857 81.6877 81.9139 82.8818 81.9139Z" fill="#2B1710"/>
<path d="M82.9495 108.331C82.4438 108.185 81.8842 108.581 81.7005 109.218C81.5158 109.854 81.7762 110.488 82.2819 110.635C82.7876 110.782 83.3472 110.385 83.5309 109.749C83.7156 109.113 83.4551 108.478 82.9495 108.331ZM82.3861 110.276C82.0385 110.176 81.8586 109.738 81.9855 109.301C82.1124 108.863 82.4969 108.59 82.8453 108.691C83.1928 108.791 83.3728 109.229 83.2459 109.666C83.119 110.104 82.7336 110.377 82.3861 110.276Z" fill="#949494"/>
<path d="M83.5569 109.66L81.8629 116.243C81.843 116.319 81.7303 116.295 81.7426 116.218L82.6621 110.575L83.5569 109.66Z" fill="#949494"/>
<path d="M83.6776 109.897C83.4219 110.508 83.6085 111.168 84.0933 111.372C84.5791 111.575 85.1804 111.245 85.436 110.634C85.6917 110.023 85.5052 109.363 85.0203 109.16C84.5346 108.956 83.9333 109.287 83.6776 109.897ZM83.9513 110.012C84.1274 109.592 84.5412 109.364 84.8755 109.504C85.2097 109.645 85.3376 110.099 85.1614 110.519C84.9853 110.939 84.5715 111.166 84.2372 111.026C83.903 110.886 83.7761 110.432 83.9513 110.012Z" fill="#9E9E9E"/>
<path d="M83.714 109.812L80.9007 116C80.8685 116.071 80.9708 116.124 81.0096 116.056L83.8362 111.086L83.714 109.812Z" fill="#9E9E9E"/>
<path d="M82.4519 112.811C82.4273 112.87 82.4547 112.937 82.5134 112.961C82.5722 112.986 82.6394 112.959 82.664 112.9C82.6886 112.841 82.6612 112.774 82.6025 112.749C82.5438 112.725 82.4765 112.752 82.4519 112.811Z" fill="#B8B8B8"/>
<path d="M82.6481 112.902C82.684 112.849 82.6704 112.777 82.6177 112.741C82.565 112.705 82.4931 112.719 82.4572 112.772C82.4212 112.824 82.4348 112.896 82.4875 112.932C82.5402 112.968 82.6121 112.955 82.6481 112.902Z" fill="#B8B8B8"/>
<path d="M82.4687 112.823L82.6172 112.885L82.6296 112.855L82.4811 112.793L82.4687 112.823Z" fill="#949494"/>
<path d="M77.4864 110.223L78.8879 110.019C78.9049 110.016 78.9163 110.001 78.9144 109.984L78.8841 109.777C78.8813 109.76 78.8661 109.748 78.8491 109.75L77.4476 109.954C77.4306 109.957 77.4192 109.972 77.4211 109.989L77.4514 110.196C77.4533 110.213 77.4694 110.225 77.4864 110.223Z" fill="#9E9E9E"/>
<path d="M77.5826 110.889L78.9841 110.685C79.0011 110.682 79.0125 110.667 79.0106 110.65L78.9803 110.443C78.9775 110.426 78.9623 110.414 78.9453 110.416L77.5438 110.62C77.5268 110.623 77.5154 110.638 77.5173 110.655L77.5476 110.862C77.5504 110.879 77.5665 110.891 77.5826 110.889Z" fill="#9E9E9E"/>
<path d="M77.6783 111.553L79.0798 111.349C79.0968 111.346 79.1082 111.331 79.1063 111.314L79.076 111.107C79.0732 111.09 79.058 111.078 79.041 111.08L77.6395 111.284C77.6225 111.287 77.6111 111.302 77.613 111.319L77.6433 111.526C77.6461 111.543 77.6613 111.555 77.6783 111.553Z" fill="#9E9E9E"/>
<path d="M77.7755 112.217L79.177 112.013C79.194 112.01 79.2054 111.995 79.2035 111.978L79.1732 111.771C79.1703 111.754 79.1552 111.742 79.1381 111.744L77.7367 111.948C77.7196 111.951 77.7083 111.966 77.7102 111.983L77.7405 112.19C77.7433 112.207 77.7585 112.219 77.7755 112.217Z" fill="#9E9E9E"/>
<path d="M79.5731 116.48L79.8823 116.436L78.9112 109.738L78.6019 109.782L79.5731 116.48Z" fill="#9E9E9E"/>
<path d="M85.0453 113.645H75.9937C76.0514 116.921 76.8269 120.657 80.8788 120.657C84.9298 120.657 85.0453 113.645 85.0453 113.645Z" fill="#433959"/>
<path d="M79.0965 162.333C79.7139 162.721 80.9884 163.323 82.3293 162.768C82.442 162.693 82.4022 162.068 82.887 161.547C83.8302 162.399 88.9729 164.295 89.5562 165.628H78.2348C78.2348 165.628 78.1202 163.617 79.0103 162.467C79.0406 162.428 79.07 162.382 79.0965 162.333Z" fill="#4F7E7B"/>
<path d="M89.5563 165.629H78.2348C78.2348 165.629 78.2102 165.199 78.2718 164.623H88.5128C89.0355 164.975 89.4199 165.317 89.5563 165.629Z" fill="#9AE1E6"/>
<path d="M164.768 108.16C164.768 108.34 163.93 116.664 163.271 118.878C162.612 121.094 162.073 123.968 162.073 123.968C162.073 123.968 166.983 124.087 167.163 124.028C167.343 123.968 168.241 121.812 168.301 121.154C168.362 120.496 168.242 111.454 167.942 110.675C167.643 109.897 164.768 108.16 164.768 108.16Z" fill="#FCAF95"/>
<path d="M153.167 148.958C153.033 150.254 152.785 151.722 153.338 152.58C153.891 153.438 154.406 154.811 154.482 155.63H143.292C143.863 154.563 148.153 152.96 149.182 152.446C150.212 151.931 149.182 148.729 149.182 148.729L153.167 148.958Z" fill="#FCAF95"/>
<path d="M150.187 153.241C150.067 153.161 150.041 152.673 149.037 152.518C147.8 153.095 143.84 154.608 143.292 155.631H154.483C154.42 154.954 154.058 153.899 153.622 153.07C153.077 153.343 152.003 153.643 150.187 153.241Z" fill="#275455"/>
<path d="M143.292 155.631H154.483C154.467 155.458 154.431 155.259 154.379 155.047H143.875C143.595 155.251 143.39 155.448 143.292 155.631Z" fill="#ADDBDE"/>
<path d="M145.187 143.331C145.053 144.628 143.645 147.173 144.197 148.031C144.75 148.889 145.264 150.262 145.341 151.081H134.15C134.722 150.014 139.012 148.411 140.041 147.897C141.071 147.382 141.534 142.992 141.534 142.992L145.187 143.331Z" fill="#FCAF95"/>
<path d="M141.046 148.69C140.926 148.611 140.9 148.122 139.895 147.967C138.659 148.544 134.699 150.058 134.151 151.08H145.342C145.279 150.403 144.917 149.348 144.481 148.519C143.936 148.793 142.862 149.093 141.046 148.69Z" fill="#275455"/>
<path d="M134.151 151.08H145.342C145.326 150.907 145.29 150.708 145.238 150.496H134.734C134.454 150.701 134.249 150.898 134.151 151.08Z" fill="#ADDBDE"/>
<path d="M183.779 127.083C183.779 133.64 180.994 134.538 174.258 134.448C167.521 134.358 159.796 134.448 159.796 134.807C157.73 142.801 153.778 150.526 153.778 150.526C151.084 149.897 148.21 148.73 148.21 148.73L150.006 137.233C150.006 137.233 146.143 145.856 145.874 145.856C141.204 144.688 139.587 142.443 139.587 142.443C139.587 142.443 145.156 125.737 147.491 124.749C149.826 123.761 166.264 122.254 166.264 122.254C166.264 122.254 176.054 122.863 178.03 123.85C180.006 124.837 183.779 127.083 183.779 127.083Z" fill="#1F2747"/>
<path d="M178.16 99.2587C182.55 99.0987 184.067 100.776 185.386 102.013C186.703 103.251 189.258 106.883 189.258 106.883L188.868 107.382C188.868 107.382 184.786 114.748 184.906 115.825C185.106 119.418 184.548 127.682 184.548 127.682C182.232 127.682 180.036 128.44 176.364 127.602C172.691 126.764 166.304 122.372 166.264 122.253C167.183 120.336 166.904 115.706 166.504 113.67C166.104 111.634 165.985 109.478 165.985 109.478L163.789 107.921C163.789 107.921 164.827 103.729 166.583 102.532C168.34 101.334 172.093 99.8979 172.093 99.8979L176.763 100.137L178.16 99.2587Z" fill="#605973"/>
<path d="M173.365 108.38C173.652 107.933 173.429 107.279 172.866 106.918C172.304 106.557 171.616 106.627 171.329 107.074C171.042 107.521 171.266 108.176 171.828 108.537C172.39 108.897 173.078 108.827 173.365 108.38ZM171.646 107.278C171.843 106.97 172.317 106.922 172.704 107.17C173.091 107.418 173.245 107.869 173.048 108.176C172.851 108.483 172.377 108.532 171.99 108.284C171.603 108.037 171.449 107.586 171.646 107.278Z" fill="#949494"/>
<path d="M171.907 108.587L166.029 105.063C165.962 105.022 166.017 104.92 166.088 104.954L171.279 107.46L171.907 108.587Z" fill="#949494"/>
<path d="M171.642 108.636C171.125 108.213 170.433 108.204 170.098 108.615C169.762 109.026 169.909 109.702 170.426 110.124C170.943 110.546 171.635 110.556 171.971 110.145C172.307 109.734 172.159 109.058 171.642 108.636ZM171.453 108.867C171.809 109.158 171.91 109.623 171.679 109.906C171.448 110.189 170.972 110.183 170.617 109.892C170.261 109.601 170.159 109.136 170.39 108.853C170.621 108.57 171.097 108.577 171.453 108.867Z" fill="#9E9E9E"/>
<path d="M171.715 108.695L166.54 104.202C166.48 104.15 166.399 104.235 166.454 104.292L170.448 108.449L171.715 108.695Z" fill="#9E9E9E"/>
<path d="M169.175 106.614C169.125 106.573 169.052 106.581 169.011 106.63C168.97 106.68 168.978 106.753 169.027 106.794C169.077 106.835 169.15 106.827 169.191 106.778C169.232 106.729 169.225 106.655 169.175 106.614Z" fill="#B8B8B8"/>
<path d="M169.191 106.614C169.14 106.573 169.067 106.581 169.027 106.63C168.986 106.68 168.994 106.753 169.043 106.794C169.093 106.835 169.166 106.827 169.207 106.778C169.247 106.729 169.24 106.655 169.191 106.614Z" fill="#B8B8B8"/>
<path d="M169.161 106.634L169.058 106.76L169.083 106.78L169.186 106.654L169.161 106.634Z" fill="#949494"/>
<path d="M188.87 107.382C186.983 108.82 183.69 109.807 183.69 109.807L184.826 112.292C181.324 111.933 177.582 111.124 177.132 110.465C176.684 109.806 175.725 108.13 175.516 107.86C175.307 107.59 173.36 106.693 173.21 106.304C173.061 105.914 172.671 106.932 173.33 107.411C173.988 107.891 174.706 108.579 174.288 108.489C173.868 108.399 171.833 107.232 171.833 107.741C171.833 108.25 172.94 109.447 172.492 109.298C172.043 109.148 171.294 108.399 171.025 108.699C170.755 108.999 171.893 110.376 171.893 110.376C171.863 111.155 172.163 111.724 172.163 111.724C172.493 112.742 172.972 113.161 174.708 113.46C176.445 113.76 176.744 113.281 178.002 114.089C179.259 114.898 186.894 119.179 189.619 119.867C192.343 120.556 193.6 119.718 193.6 119.239C193.6 118.759 192.852 113.281 188.87 107.382Z" fill="#FCAF95"/>
<path d="M179.019 92.4123C180.117 90.5166 179.938 88.3604 178.081 87.762C176.225 87.1635 174.128 87.5224 173.35 87.1436C172.572 86.7648 170.795 87.7421 170.955 89.4588C171.115 91.1756 171.314 91.8745 171.314 91.8745C171.314 91.8745 171.095 93.3119 170.736 93.8706C170.377 94.4292 167.402 97.7227 172.472 98.9802C174.788 99.4792 175.387 98.9404 175.447 98.8807C175.506 98.8211 176.823 95.8667 176.823 95.8667C176.823 95.8667 177.202 94.8487 177.322 94.6489C177.443 94.4491 179.019 92.4123 179.019 92.4123Z" fill="#2B1710"/>
<path d="M176.924 94.3093C177.263 92.0736 178.241 91.834 179.08 92.2138C179.918 92.5935 179.739 95.1682 177.323 95.0479C176.904 97.4635 177.523 99.1595 178.161 99.2598C176.844 102.074 174.948 104.11 172.593 103.531C170.238 102.953 170.557 101.316 172.094 99.899C172.452 99.2807 172.473 98.9805 172.473 98.9805C172.932 99.06 176.125 98.5809 176.924 94.3093Z" fill="#FCAF95"/>
<path d="M176.225 88.9994C176.425 89.578 176.485 89.6178 176.205 89.7977C175.926 89.9776 175.806 90.4965 176.185 91.095C176.565 91.6934 175.806 95.0276 174.868 94.8874C173.93 94.7473 172.573 93.8695 170.737 93.8695C170.816 92.8515 171.096 92.3127 171.036 92.0334C170.976 91.754 171.016 89.9179 171.395 89.239C171.775 88.5601 172.333 88.2012 172.333 88.2012C172.752 88.7599 175.346 89.1793 176.225 88.9994Z" fill="#FCAF95"/>
<path d="M171.894 94.8676C172.432 95.1091 173.73 94.808 174.03 95.1669C174.329 95.5258 172.992 96.9433 171.534 96.4443C170.078 95.9462 170.048 94.04 171.894 94.8676Z" fill="#FCAF95"/>
<path d="M172.312 93.9309C172.339 93.9309 172.364 93.9129 172.372 93.8845C172.38 93.8513 172.36 93.8182 172.327 93.8097C171.882 93.696 171.38 93.5275 171.3 93.4394C171.325 93.4091 171.404 93.3504 171.474 93.2974C171.885 92.9896 172.846 92.2681 172.39 90.9149C172.379 90.8827 172.344 90.8657 172.312 90.8761C172.28 90.8865 172.263 90.9215 172.273 90.9537C172.701 92.2236 171.822 92.8826 171.4 93.1998C171.23 93.3267 171.146 93.3902 171.176 93.4707C171.241 93.6421 171.981 93.8475 172.297 93.928C172.302 93.9299 172.307 93.9309 172.312 93.9309Z" fill="#2B1710"/>
<path d="M172.86 95.659C173.03 95.659 173.209 95.6486 173.398 95.6259C173.431 95.6221 173.456 95.5918 173.451 95.5577C173.447 95.5245 173.416 95.4999 173.383 95.5046C171.93 95.6789 171.059 95.0634 171.051 95.0568C171.023 95.0369 170.985 95.0426 170.965 95.07C170.946 95.0975 170.951 95.1354 170.979 95.1552C171.012 95.1789 171.687 95.659 172.86 95.659Z" fill="#2B1710"/>
<path d="M177.642 94.4092C177.644 94.4092 177.645 94.4092 177.647 94.4092C177.906 94.3893 178.098 94.2634 178.171 94.0617C178.24 93.8742 178.191 93.6554 178.05 93.5181C177.935 93.4045 177.776 93.3619 177.6 93.3932C177.784 93.0835 178.149 92.7824 178.454 92.7824C178.456 92.7824 178.459 92.7824 178.461 92.7824C178.627 92.7852 178.748 92.8828 178.822 93.0731C178.834 93.1043 178.87 93.1204 178.902 93.1081C178.933 93.0958 178.949 93.0608 178.937 93.0286C178.82 92.7284 178.616 92.6621 178.464 92.6602C178.057 92.6536 177.592 93.0797 177.426 93.4661C177.417 93.4888 177.421 93.5153 177.439 93.5323C177.456 93.5503 177.482 93.556 177.505 93.5466C177.689 93.4746 177.853 93.4954 177.965 93.6043C178.072 93.7094 178.109 93.8761 178.057 94.0191C178 94.1753 177.85 94.2709 177.638 94.287C177.604 94.2899 177.58 94.3192 177.581 94.3524C177.584 94.3846 177.611 94.4092 177.642 94.4092Z" fill="#E98971"/>
<path d="M180.517 106.215C180.548 106.215 180.575 106.192 180.578 106.16C180.581 106.124 180.997 102.595 183.86 101.631C183.892 101.621 183.909 101.586 183.899 101.554C183.888 101.521 183.853 101.504 183.821 101.515C180.884 102.504 180.46 106.111 180.456 106.147C180.453 106.18 180.477 106.211 180.51 106.214C180.512 106.215 180.515 106.215 180.517 106.215Z" fill="#D1D1D1"/>
<path d="M165.936 109.209C165.938 109.209 165.94 109.209 165.942 109.209C165.976 109.206 165.999 109.176 165.996 109.142C165.995 109.121 165.793 107.016 166.203 105.875C166.214 105.843 166.198 105.808 166.166 105.797C166.134 105.785 166.099 105.801 166.087 105.834C165.668 107.001 165.866 109.066 165.874 109.153C165.878 109.186 165.905 109.209 165.936 109.209Z" fill="#D1D1D1"/>
<path d="M190.337 114.21C190.357 114.21 190.376 114.2 190.387 114.183C190.406 114.156 190.4 114.117 190.371 114.098C187.693 112.252 184.915 112.23 184.888 112.23C184.854 112.23 184.826 112.258 184.826 112.292C184.826 112.326 184.854 112.354 184.888 112.354C184.915 112.354 187.656 112.375 190.302 114.199C190.313 114.206 190.325 114.21 190.337 114.21Z" fill="#E98971"/>
<path d="M150.516 136.127C150.548 136.127 150.575 136.102 150.577 136.07C150.581 136.024 150.942 131.452 151.531 129.981C151.995 128.819 162.4 125.737 167.837 124.269C167.869 124.26 167.889 124.226 167.88 124.194C167.872 124.162 167.838 124.142 167.805 124.15C167.161 124.325 152.02 128.428 151.417 129.935C150.821 131.424 150.469 135.872 150.455 136.061C150.452 136.095 150.478 136.124 150.511 136.126C150.514 136.127 150.515 136.127 150.516 136.127Z" fill="#B8B8B8"/>
<path d="M159.115 134.751C159.13 134.751 159.144 134.749 159.158 134.744C159.322 134.689 159.241 134.431 159.107 134.004C159.032 133.767 158.947 133.498 158.899 133.238C158.893 133.204 158.861 133.183 158.828 133.188C158.795 133.194 158.773 133.226 158.779 133.259C158.827 133.526 158.913 133.799 158.99 134.04C159.062 134.269 159.161 134.582 159.12 134.628C159.038 134.655 158.743 134.376 158.529 134.108C158.508 134.081 158.469 134.078 158.443 134.098C158.416 134.119 158.412 134.158 158.433 134.185C158.542 134.324 158.901 134.751 159.115 134.751Z" fill="#D1D1D1"/>
<path d="M152.775 147.741C152.743 147.731 152.724 147.697 152.733 147.665C153.151 146.216 156.835 133.496 157.617 133.135C157.888 133.01 158.031 132.908 158.052 132.823C158.07 132.752 158.01 132.669 157.925 132.555C157.876 132.489 157.82 132.413 157.769 132.323C157.754 132.297 157.755 132.267 157.769 132.24C157.802 132.182 157.871 132.061 160.261 131.785C161.607 131.631 163.469 131.453 165.647 131.271C169.784 130.925 174.117 130.643 175.725 130.614C179.189 130.55 179.875 129.924 180.036 128.632C180.04 128.599 180.071 128.574 180.104 128.579C180.137 128.582 180.162 128.614 180.157 128.647C179.964 130.19 178.929 130.678 175.727 130.737C172.282 130.799 158.585 131.888 157.891 132.291C157.934 132.362 157.981 132.425 158.023 132.481C158.12 132.612 158.203 132.724 158.171 132.852C158.138 132.982 157.992 133.096 157.668 133.246C157.116 133.501 154.484 142.029 152.851 147.698C152.843 147.725 152.819 147.743 152.792 147.743C152.786 147.744 152.781 147.743 152.775 147.741Z" fill="#D1D1D1"/>
<path d="M173.586 92.4536C173.539 92.7424 173.665 93.0019 173.867 93.0341C174.069 93.0663 174.269 92.8589 174.315 92.5701C174.36 92.2813 174.235 92.0218 174.034 91.9896C173.832 91.9574 173.631 92.1657 173.586 92.4536Z" fill="#2B1710"/>
<path d="M171.414 92.1406C171.368 92.4294 171.484 92.687 171.673 92.7173C171.861 92.7476 172.052 92.5383 172.098 92.2495C172.143 91.9607 172.028 91.7031 171.839 91.6728C171.651 91.6425 171.46 91.8518 171.414 92.1406Z" fill="#2B1710"/>
<path d="M175.925 91.3533C174.408 90.6744 173.331 90.7549 173.331 90.7549C174.527 90.0163 175.745 90.7549 175.925 91.3533Z" fill="#2B1710"/>
<path d="M172.134 90.716C171.834 90.5162 171.296 90.6961 171.175 90.8561C171.395 90.197 171.934 90.3362 172.134 90.716Z" fill="#2B1710"/>
<path d="M224.999 167H22V166.355C22 166.159 23.3396 166 24.9926 166H222.007C223.66 166 225 166.159 225 166.355V167H224.999Z" fill="#3F4447"/>
<defs>
<clipPath id="clip0_647_154449">
<rect width="11.4717" height="14.7925" fill="white" transform="translate(97.4526 96.2656)"/>
</clipPath>
<clipPath id="clip1_647_154449">
<rect width="8.71996" height="7.26663" fill="white" transform="translate(137.057 59.7129)"/>
</clipPath>
<clipPath id="clip2_647_154449">
<rect width="11.9073" height="12.1779" fill="white" transform="translate(131.244 51.875)"/>
</clipPath>
<clipPath id="clip3_647_154449">
<rect width="14.4906" height="13.283" fill="white" transform="translate(96.2451 52.791)"/>
</clipPath>
</defs>
</svg>
